<?xml version="1.0" encoding="UTF-8" standalone="no"?>
<!-- Created with Inkscape (http://www.inkscape.org/) -->

<svg
   width="9.2600002mm"
   height="9.2600002mm"
   viewBox="0 0 9.2600003 9.2600002"
   version="1.1"
   id="svg5719"
   xmlns="http://www.w3.org/2000/svg"
   xmlns:svg="http://www.w3.org/2000/svg">
  <defs
     id="defs5716" />
  <g
     id="layer1">
    <g
       id="g5502"
       transform="translate(-94.086488,-125.9723)">
      <path
         id="rect2608-7-6-4-4-3-5-7-5"
         style="display:inline;fill:#ffffff;fill-opacity:1;stroke-width:1.37494;stroke-linecap:square;stroke-miterlimit:4;stroke-dasharray:none;paint-order:markers stroke fill"
         d="m 103.34691,127.29501 c 0,-0.73287 -0.5904,-1.32271 -1.32327,-1.32271 h -6.614291 c -0.73286,0 -1.32286,0.58998 -1.32286,1.32285 v 6.61429 c 0,0.73287 0.59,1.32286 1.32286,1.32286 h 6.614291 c 0.72885,0 1.31685,-0.59543 1.32327,-1.32271 z" />
      <path
         id="rect2608-7-6-4-4-3-5-7"
         style="display:inline;fill:#ffa500;fill-opacity:1;stroke-width:1.37494;stroke-linecap:square;stroke-miterlimit:4;stroke-dasharray:none;paint-order:markers stroke fill"
         d="m 94.086488,131.52834 c 4.07524,0 5.39851,0.79375 9.260422,0.79375 v -3.43958 c -1.85985,0 -3.04247,0.42999 -4.365322,0.893 -1.32287,0.463 -2.78637,0.95908 -4.8951,0.95908 m 0,-1.5875 c 1.85986,0 3.04309,-0.4185 4.36595,-0.8815 1.32286,-0.463 2.785752,-0.97058 4.894472,-0.97058 0,-0.73287 -0.5904,-1.32271 -1.32327,-1.32271 h -6.614292 c -0.73286,0 -1.32286,0.58998 -1.32286,1.32285 m 0,6.61429 c 0,0.73287 0.59,1.32286 1.32286,1.32286 h 6.614292 c 0.72885,0 1.31685,-0.59543 1.32327,-1.32271 -4.074822,-7e-5 -5.398672,-0.79375 -9.260422,-0.79375" />
    </g>
  </g>
</svg>
