<?xml version="1.0" encoding="UTF-8" standalone="no"?>
<svg
   xmlns:dc="http://purl.org/dc/elements/1.1/"
   xmlns:cc="http://creativecommons.org/ns#"
   xmlns:rdf="http://www.w3.org/1999/02/22-rdf-syntax-ns#"
   xmlns:svg="http://www.w3.org/2000/svg"
   xmlns="http://www.w3.org/2000/svg"
   xmlns:sodipodi="http://sodipodi.sourceforge.net/DTD/sodipodi-0.dtd"
   xmlns:inkscape="http://www.inkscape.org/namespaces/inkscape"
   sodipodi:docname="favicon.svg"
   viewBox="0 0 128 128"
   height="128"
   width="128"
   inkscape:version="1.0 (4035a4fb49, 2020-05-01)"
   version="1.1"
   id="svg2">
  <metadata
     id="metadata8">
    <rdf:RDF>
      <cc:Work
         rdf:about="">
        <dc:format>image/svg+xml</dc:format>
        <dc:type
           rdf:resource="http://purl.org/dc/dcmitype/StillImage" />
        <dc:title></dc:title>
      </cc:Work>
    </rdf:RDF>
  </metadata>
  <defs
     id="defs6" />
  <sodipodi:namedview
     inkscape:document-rotation="0"
     inkscape:current-layer="svg2"
     inkscape:window-maximized="1"
     inkscape:window-y="27"
     inkscape:window-x="0"
     inkscape:cy="50.823433"
     inkscape:cx="13.267962"
     inkscape:zoom="2.9943234"
     showgrid="false"
     id="namedview4"
     inkscape:window-height="1016"
     inkscape:window-width="1920"
     inkscape:pageshadow="2"
     inkscape:pageopacity="0"
     guidetolerance="10"
     gridtolerance="10"
     objecttolerance="10"
     borderopacity="1"
     bordercolor="#666666"
     pagecolor="#ffffff" />
  <g
     transform="translate(25.66441,271.74926)"
     id="g1652">
    <path
       sodipodi:nodetypes="cssssssssssssssssscsscssscccssssssssscccsssssssssccccscscssssssssssscccsscsscscscsscsscsccc"
       inkscape:connector-curvature="0"
       id="path4148"
       d="m -3.1831067,-209.97601 c -0.1739326,-0.02 -0.7025076,-0.0803 -1.1746105,-0.13405 -7.1857388,-0.81823 -13.3965458,-4.55061 -17.2719968,-10.3796 -2.510269,-3.77565 -3.84255,-8.10713 -4.017278,-13.06087 -0.155984,-4.42237 0.738805,-8.86435 2.529936,-12.5593 1.181218,-2.43675 2.367635,-4.14459 4.166043,-5.99702 4.665562,-4.8057 10.9565568,-7.23667 18.19639505,-7.03146 3.80969185,0.10798 6.90795835,0.85655 10.17598325,2.45861 1.7648487,0.86517 4.4725547,2.64459 4.4725547,2.93924 0,0.0778 -3.401732,5.54781 -3.630742,5.83825 -0.05927,0.0752 -0.260447,-0.0285 -0.7071783,-0.36462 -2.27978,-1.71505 -5.6639226,-3.01305 -8.87793645,-3.40519 -1.27722003,-0.15582 -3.74485335,-0.0668 -4.97248435,0.17937 -4.6562826,0.93375 -8.2601669,3.76661 -10.4112019,8.18382 -1.260901,2.58929 -1.84997,5.27936 -1.84997,8.44816 0,3.05792 0.612004,5.85894 1.848514,8.46029 0.912475,1.91964 1.839308,3.26515 3.250897,4.71942 2.1011711,2.16469 4.4954696,3.5085 7.3695287,4.13618 0.6400454,0.13978 1.159446,0.1674 3.11723527,0.16576 2.47588873,-0.002 3.27154563,-0.074 5.15021433,-0.46574 1.6226036,-0.33832 2.8021352,-0.76217 4.6386324,-1.66682 0.9113109,-0.44891 1.6676753,-0.80284 1.6808103,-0.78651 0.167728,0.20852 3.303326,5.72496 3.303326,5.81152 0,0.29406 -3.046565,1.97659 -4.8831198,2.6968 -3.1449679,1.23331 -5.9644241,1.7691 -9.573622,1.81929 -1.2175287,0.0169 -2.3559972,0.0145 -2.5299299,-0.006 z m 33.4312167,-0.008 c -6.601485,-0.67666 -11.222808,-4.34875 -13.397587,-10.64569 -0.721952,-2.09035 -1.055864,-4.07854 -1.122943,-6.68624 -0.07135,-2.77357 0.204602,-4.79466 0.972587,-7.12332 0.434051,-1.31611 1.490327,-3.49976 2.236138,-4.62278 2.461246,-3.70608 6.067751,-6.18389 10.200491,-7.00815 2.10148,-0.41913 5.224543,-0.32152 7.52346,0.23513 7.453113,1.80469 11.929845,8.40767 11.929845,17.596 0,2.57962 -0.321669,4.72091 -1.034726,6.88801 -2.125587,6.45998 -6.975583,10.55687 -13.419646,11.33583 -0.710217,0.0859 -3.162496,0.10555 -3.887619,0.0312 z m 3.551169,-6.67771 c 0.880879,-0.1939 2.149485,-0.82172 2.872753,-1.4217 2.405557,-1.99547 3.874473,-6.34588 3.651252,-10.81372 -0.212089,-4.24511 -1.146459,-7.0547 -2.943037,-8.84954 -1.400268,-1.39892 -2.947507,-1.99302 -5.190455,-1.99302 -1.332397,0 -2.1146,0.17123 -3.206647,0.70198 -0.739963,0.35963 -0.976779,0.5363 -1.716739,1.28068 -0.954175,0.95989 -1.520445,1.83284 -2.074753,3.19838 -1.711558,4.21645 -1.626435,9.50797 0.215499,13.39633 1.143107,2.41312 2.78429,3.89408 4.941429,4.459 0.858276,0.22477 2.527228,0.2449 3.450698,0.0416 z m 20.63836,5.67738 c -0.05225,-0.0979 0.103279,-34.10386 0.156612,-34.24284 0.03569,-0.093 0.856655,-0.11165 4.090505,-0.0928 l 4.045846,0.0235 0.04518,2.20625 c 0.0305,1.48972 0.07752,2.21699 0.144766,2.23935 0.05477,0.0182 0.392419,-0.33361 0.750323,-0.78182 1.783827,-2.23389 4.412514,-3.8595 7.236828,-4.47533 0.372713,-0.0813 1.246894,-0.1707 1.942625,-0.19873 4.099968,-0.1652 7.175604,1.58803 8.45751,4.82109 0.154163,0.38881 0.311941,0.74071 0.350613,0.78201 0.03867,0.0413 0.654547,-0.50997 1.368619,-1.22504 2.215189,-2.21829 4.357244,-3.43727 7.215839,-4.10629 1.281599,-0.29994 3.437524,-0.37969 4.765665,-0.17628 2.559214,0.39195 4.443966,1.50637 5.67394,3.35491 0.91705,1.37824 1.4221,3.01057 1.59278,5.14783 0.0734,0.91941 0.0791,4.76054 0.0207,14.00681 l -0.0804,12.74 h -4.106134 -4.106149 l 0.04019,-9.48724 c 0.06524,-15.40193 0.06672,-15.26312 -0.169704,-15.90241 -0.634082,-1.71463 -1.950973,-2.57316 -3.946428,-2.57283 -0.65883,9e-5 -0.952365,0.0486 -1.546375,0.25537 -1.474913,0.51344 -3.119937,1.6532 -4.750097,3.29114 l -0.977077,0.98173 -0.0051,2.32024 c -0.01346,6.06263 -0.24319,20.99188 -0.324265,21.07296 -0.05533,0.0553 -1.580447,0.0794 -4.098459,0.0646 l -4.010327,-0.0236 0.0402,-9.48723 c 0.06526,-15.40151 0.06674,-15.26312 -0.169686,-15.90242 -0.634081,-1.71463 -1.950973,-2.57316 -3.946428,-2.57283 -0.65883,9e-5 -0.952365,0.0486 -1.546375,0.25537 -1.474912,0.51344 -3.119936,1.65321 -4.750096,3.29114 l -0.977077,0.98174 -0.0052,2.32023 c -0.01111,5.00368 -0.239376,20.95278 -0.301314,21.05301 -0.07468,0.12082 -8.057878,0.15857 -8.12203,0.0384 z"
       style="fill:#77bbcf;stroke-width:0.301182"
       inkscape:export-filename="/run/user/1000/gvfs/sftp:host=daniel-desktop,user=daniel/home/daniel/Documents/legacy-of-a-hackerman/timetable/html/favicon.ico.png"
       inkscape:export-xdpi="28.969152"
       inkscape:export-ydpi="28.969152" />
    <path
       inkscape:connector-curvature="0"
       id="path4140"
       d="m -5.6488419,-174.3514 c -9.3904851,-15.76964 -10.7462201,-18.00226 -10.9316461,-18.00226 h -0.211683 l 0.02452,1.35532 c 0.160615,8.87961 0.565349,29.69551 0.610933,31.42082 l 0.05907,2.23628 h -4.256363 -4.256363 l 0.0059,-0.97131 c 0.0033,-0.53422 0.09578,-10.80291 0.205647,-22.8193 0.16553,-18.10377 0.2207,-21.86092 0.32197,-21.92351 0.146709,-0.0907 7.694809,-2.3588 7.824296,-2.35113 0.04969,0.003 5.030494,8.11938 11.068443,18.03652 6.03794862,9.91714 11.0316416,18.05248 11.0971036,18.07854 0.065462,0.026 0.1636593,0.003 0.2182154,-0.0518 0.07204,-0.072 0.033558,-4.54819 -0.1404834,-16.3436 -0.1318274,-8.93441 -0.2610977,-16.80346 -0.2872735,-17.48677 l -0.04759,-1.24238 h 4.2479601 4.2479598 l -0.0015,2.86876 c -9.03e-4,1.57782 -0.08151,11.40728 -0.179372,21.84324 -0.09786,10.43596 -0.178532,19.4231 -0.179263,19.97142 l -0.0015,0.99695 -4.2727897,1.19415 c -2.3500338,0.65678 -4.3118589,1.19374 -4.3596113,1.19325 -0.047752,-3e-4 -4.91080166,-8.10192 -10.8067851,-18.00316 z m 40.0852199,17.94181 c -6.797018,-0.88194 -11.416001,-5.68863 -12.82678,-13.34803 -1.0089,-5.47753 -0.09235,-11.17088 2.49405,-15.49234 1.604165,-2.68031 3.593051,-4.56057 6.176417,-5.83908 2.109401,-1.04396 3.521346,-1.3889 5.993919,-1.46436 1.927093,-0.0588 3.111741,0.0523 4.577574,0.42931 3.88318,0.99878 6.568556,3.44062 8.217139,7.47193 1.067757,2.61104 1.643922,5.65966 1.818839,9.624 l 0.0628,1.42309 h -10.70107 c -8.202584,0 -10.726388,0.0253 -10.809496,0.10842 -0.143483,0.14349 -0.134629,0.90379 0.02346,2.01557 0.170382,1.19816 0.270901,1.64156 0.604093,2.6648 1.030666,3.16509 3.042024,5.25972 5.649116,5.88297 0.661541,0.15814 0.991344,0.1838 1.927527,0.14995 0.993259,-0.0359 1.24009,-0.0789 2.047255,-0.35646 1.631082,-0.56091 2.860384,-1.37952 4.56562,-3.04032 0.580836,-0.5657 1.096743,-1.01416 1.146465,-0.99656 0.20318,0.0719 4.485828,4.09811 4.511416,4.24129 0.03428,0.19183 -1.196458,1.43021 -2.355816,2.37046 -2.802431,2.27279 -5.893337,3.64862 -9.179779,4.08614 -0.868317,0.1156 -3.261531,0.15761 -3.942751,0.0692 z m 8.717,-22.83997 c 0.143393,-0.17278 -0.0059,-1.37473 -0.320154,-2.57778 -0.354768,-1.35807 -0.921707,-2.4041 -1.804589,-3.32956 -0.410093,-0.42987 -0.977068,-0.92087 -1.259951,-1.09111 -1.476729,-0.88871 -3.710838,-0.98052 -5.2355,-0.21515 -1.576354,0.79133 -3.100311,2.42224 -3.94229,4.21898 -0.574854,1.22672 -0.96937,2.84541 -0.74754,3.06724 0.03312,0.0331 3.016625,0.0602 6.629997,0.0602 5.670693,0 6.584857,-0.0182 6.680027,-0.13285 z m 21.420853,22.75487 c -3.808222,-0.70215 -5.848367,-2.8743 -6.650698,-7.08102 -0.22923,-1.20188 -0.259399,-6.08288 -0.08927,-14.44141 0.114904,-5.64497 0.124897,-7.37831 0.04312,-7.47685 -0.08673,-0.1045 -0.522973,-0.12827 -2.354253,-0.12827 h -2.24781 v -2.99609 -2.99608 l 2.250815,0.0559 c 2.004482,0.0498 2.264053,0.04 2.37181,-0.0898 0.09437,-0.11371 0.144278,-1.16132 0.226844,-4.76258 0.05822,-2.53924 0.10904,-5.23686 0.112943,-5.99471 l 0.0071,-1.3779 h 4.065959 4.065959 l -0.0018,0.51953 c -9.04e-4,0.28575 -0.06085,2.99948 -0.132975,6.03051 -0.105517,4.43359 -0.108887,5.53322 -0.01726,5.62486 0.09017,0.0902 0.889487,0.0997 3.837596,0.0459 l 3.723687,-0.0681 -8.2e-5,3.0043 -7.2e-5,3.00429 h -3.738658 c -3.182525,0 -3.755085,0.0198 -3.849108,0.13309 -0.15391,0.18545 -0.378477,10.99143 -0.343673,16.53734 0.0266,4.23754 0.02711,4.24782 0.242567,4.78423 0.729685,1.81673 2.617564,2.31352 4.743925,1.24833 0.243849,-0.12215 0.722087,-0.40743 1.062751,-0.63396 0.340674,-0.22653 0.635962,-0.39531 0.656201,-0.37507 0.141007,0.14101 2.226302,4.72329 2.191145,4.8149 -0.04694,0.12231 -2.942218,1.69223 -3.738839,2.02733 -0.258305,0.10865 -0.847869,0.30367 -1.310142,0.43338 -0.747251,0.20967 -1.03597,0.23932 -2.602412,0.26729 -1.321283,0.0236 -1.952844,-0.004 -2.525349,-0.10931 z m 22.22266,0.0511 c -2.648521,-0.31988 -5.50642,-1.19183 -7.860854,-2.39838 -0.521798,-0.2674 -1.00571,-0.52307 -1.075356,-0.56817 -0.101061,-0.0654 0.170518,-0.65394 1.344884,-2.91436 0.809325,-1.5578 1.482223,-2.84517 1.495315,-2.86081 0.0131,-0.0156 0.546375,0.25812 1.185055,0.60835 4.177529,2.29076 8.059236,2.85201 10.367888,1.49905 0.618107,-0.36224 1.447626,-1.30079 1.692342,-1.91479 0.173689,-0.43577 0.20993,-0.69544 0.212053,-1.5195 0.0033,-1.25291 -0.149889,-1.62617 -1.016345,-2.47729 -0.941323,-0.92468 -1.963397,-1.36814 -5.305904,-2.30213 -3.701305,-1.03426 -5.469058,-1.84645 -6.884689,-3.16317 -1.420104,-1.32088 -2.209776,-2.87252 -2.619218,-5.14657 -0.223312,-1.24029 -0.205449,-3.64077 0.0354,-4.75588 0.826275,-3.82558 3.411339,-6.40118 7.660202,-7.63214 3.528792,-1.02234 8.258487,-0.76786 12.063555,0.64909 1.485602,0.55321 3.405291,1.59456 4.047551,2.19562 0.20313,0.1901 0.20407,0.19931 0.0452,0.43919 -1.51115,2.28132 -3.249568,4.80002 -3.312997,4.80002 -0.04492,0 -0.369379,-0.18953 -0.721003,-0.42119 -0.847247,-0.55816 -2.43447,-1.31333 -3.46782,-1.6499 -3.19953,-1.04211 -5.93133,-0.67155 -7.679169,1.04167 -0.991606,0.97197 -1.378405,2.18081 -1.07578,3.36208 0.18202,0.71049 0.443434,1.11836 1.115645,1.74071 0.944215,0.87418 1.998392,1.32892 5.853002,2.52482 3.020284,0.93705 4.376589,1.51735 5.844671,2.50068 2.370721,1.58794 3.599361,4.17556 3.595071,7.57156 -0.007,5.57553 -3.419024,9.37883 -9.530097,10.62313 -0.836458,0.17031 -1.337411,0.20615 -3.162412,0.22626 -1.192681,0.0131 -2.473458,-0.0129 -2.846171,-0.058 z"
       style="fill:#074275;stroke-width:0.301182"
       sodipodi:nodetypes="cscssccccsscsssssccccsccscccsssssssscsssssssssssssssssssssssssssscccssssccccssscccssscssssssssscsssssssssssssssscsssssssssssc"
       inkscape:export-filename="/run/user/1000/gvfs/sftp:host=daniel-desktop,user=daniel/home/daniel/Documents/legacy-of-a-hackerman/timetable/html/favicon.ico.png"
       inkscape:export-xdpi="28.969152"
       inkscape:export-ydpi="28.969152" />
  </g>
</svg>
